<svg xmlns="http://www.w3.org/2000/svg" xmlns:xlink="http://www.w3.org/1999/xlink" width="1080" zoomAndPan="magnify" viewBox="0 0 810 1012.49997" height="1350" preserveAspectRatio="xMidYMid meet" version="1.0"><defs><clipPath id="16589829cd"><path d="M 0.308594 0.449219 L 217.832031 0.449219 L 217.832031 623.550781 L 0.308594 623.550781 Z M 0.308594 0.449219 " clip-rule="nonzero"/></clipPath><clipPath id="1c1b1d6cc8"><path d="M 0.308594 0.449219 L 217.832031 0.449219 L 217.832031 623.550781 L 0.308594 623.550781 Z M 0.308594 0.449219 " clip-rule="nonzero"/></clipPath><clipPath id="886d81bb4b"><rect x="0" width="218" y="0" height="624"/></clipPath><clipPath id="e6bb6d8339"><path d="M 222.980469 207.597656 L 440.503906 207.597656 L 440.503906 623.550781 L 222.980469 623.550781 Z M 222.980469 207.597656 " clip-rule="nonzero"/></clipPath><clipPath id="83eee09fd3"><path d="M 0.980469 0.597656 L 218.503906 0.597656 L 218.503906 416.550781 L 0.980469 416.550781 Z M 0.980469 0.597656 " clip-rule="nonzero"/></clipPath><clipPath id="21f65cbf5b"><rect x="0" width="219" y="0" height="417"/></clipPath><clipPath id="2b6296d6c8"><path d="M 446.167969 415.574219 L 663.691406 415.574219 L 663.691406 623.550781 L 446.167969 623.550781 Z M 446.167969 415.574219 " clip-rule="nonzero"/></clipPath><clipPath id="f2fa5a90fb"><path d="M 0.167969 0.574219 L 217.691406 0.574219 L 217.691406 208.550781 L 0.167969 208.550781 Z M 0.167969 0.574219 " clip-rule="nonzero"/></clipPath><clipPath id="dcfece02f3"><rect x="0" width="218" y="0" height="209"/></clipPath><clipPath id="92ffdc9c88"><rect x="0" width="665" y="0" height="625"/></clipPath></defs><g transform="matrix(1, 0, 0, 1, 73, 194)"><g clip-path="url(#92ffdc9c88)"><g clip-path="url(#16589829cd)"><g><g clip-path="url(#886d81bb4b)"><g clip-path="url(#1c1b1d6cc8)"><path fill="#ffffff" d="M 0.308594 0.449219 L 217.832031 0.449219 L 217.832031 623.28125 L 0.308594 623.28125 Z M 0.308594 0.449219 " fill-opacity="1" fill-rule="nonzero"/></g></g></g></g><g clip-path="url(#e6bb6d8339)"><g transform="matrix(1, 0, 0, 1, 222, 207)"><g clip-path="url(#21f65cbf5b)"><g clip-path="url(#83eee09fd3)"><path fill="#ffffff" d="M 0.980469 0.597656 L 218.503906 0.597656 L 218.503906 416.953125 L 0.980469 416.953125 Z M 0.980469 0.597656 " fill-opacity="1" fill-rule="nonzero"/></g></g></g></g><g clip-path="url(#2b6296d6c8)"><g transform="matrix(1, 0, 0, 1, 446, 415)"><g clip-path="url(#dcfece02f3)"><g clip-path="url(#f2fa5a90fb)"><path fill="#ffffff" d="M 0.167969 0.574219 L 217.890625 0.574219 L 217.890625 208.550781 L 0.167969 208.550781 Z M 0.167969 0.574219 " fill-opacity="1" fill-rule="nonzero"/></g></g></g></g></g></g></svg>